#!OML:ASF X:\für Bonn\!DataBase\2005_08_10_Bjorn_Final\c3d\bjorn.ASF
:FULLY-SPECIFIED
:DEGREES
77
root 16.8242 19.1881 0.301726 157.371 -100.011 -148.047
lowerback 28.4695 1.06369 6.98006
upperback 23.7182 -0.608971 4.31828
thorax 11.3431 -0.8432 0.830878
lowerneck 11.6943 -6.45965 4.32316
upperneck -4.08709 -8.09414 -2.17678
head -3.7182 -3.97433 -0.917348
rclavicle 3.18055e-014 -1.19271e-014
rhumerus 22.2573 7.2381 -66.6298
rradius 26.5701
rwrist -11.4576
rhand -13.2295 11.3305
rfingers 7.12502
rthumb 12.872 -18.2526
lclavicle 3.18055e-014 -1.19271e-014
lhumerus -13.9149 -20.7062 88.6028
lradius 47.3302
lwrist -10.023
lhand -21.893 -5.3125
lfingers 7.12502
lthumb 4.51207 24.6194
rfemur -34.0441 -12.046 12.654
rtibia 35.1052
rfoot -4.34692 10.0024
rtoes -2.28761
lfemur -21.2636 3.33113 -24.6479
ltibia 43.7113
lfoot -9.73774 -11.7631
ltoes -10.3441
78
root 16.7928 19.1944 0.291043 158.552 -100.351 -148.524
lowerback 28.8002 0.97758 7.33821
upperback 23.7511 -0.642418 4.44666
thorax 11.2642 -0.825803 0.7933
lowerneck 11.7943 -6.61649 4.37761
upperneck -4.55321 -8.28169 -1.99847
head -3.90343 -4.07614 -0.842231
rclavicle 1.74931e-014 -5.56597e-015
rhumerus 23.4394 7.02925 -65.9582
rradius 26.5543
rwrist -11.4626
rhand -13.3032 11.3928
rfingers 7.12502
rthumb 12.8009 -18.1947
lclavicle 1.74931e-014 -5.56597e-015
lhumerus -14.1148 -21.2499 88.947
lradius 46.758
lwrist -10.6062
lhand -21.0313 -5.35534
lfingers 7.12502
lthumb 5.3441 24.5573
rfemur -34.7205 -12.0839 12.6515
rtibia 35.2299
rfoot -4.58695 9.64829
rtoes -2.67776
lfemur -22.6419 3.11065 -24.6396
ltibia 44.7221
lfoot -9.45813 -11.989
ltoes -10.8659
79
root 16.7634 19.1969 0.281637 159.575 -100.692 -148.839
lowerback 29.1649 0.884557 7.69103
upperback 23.7504 -0.66909 4.55555
thorax 11.1314 -0.803652 0.738125
lowerneck 11.9226 -6.76457 4.41416
upperneck -4.99808 -8.45742 -1.81742
head -4.0862 -4.17229 -0.762192
rclavicle -3.18055e-015 -4.92986e-014
rhumerus 24.5426 6.77029 -65.347
rradius 26.56
rwrist -11.3766
rhand -13.4303 11.4101
rfingers 7.12502
rthumb 12.6783 -18.1851
lclavicle -3.18055e-015 -4.92986e-014
lhumerus -14.3829 -21.8622 89.2722
lradius 46.2709
lwrist -11.1875
lhand -20.1869 -5.34331
lfingers 7.12502
lthumb 6.1594 24.5471
rfemur -35.4222 -12.0558 12.5987
rtibia 35.3926
rfoot -4.81913 9.25576
rtoes -2.72513
lfemur -24.0278 2.99517 -24.6599
ltibia 45.682
lfoot -9.36212 -12.1661
ltoes -11.9128
80
root 16.735 19.1975 0.272676 160.648 -101.014 -149.214
lowerback 29.5327 0.810873 8.12741
upperback 23.7524 -0.649641 4.64065
thorax 11.0084 -0.744028 0.606655
lowerneck 12.0688 -6.95521 4.5774
upperneck -5.82601 -8.67526 -1.71318
head -3.95553 -4.28486 -0.642007
rclavicle -2.8625e-014 -1.82882e-014
rhumerus 25.5794 6.33993 -64.8191
rradius 26.5538
rwrist -11.2655
rhand -13.6037 11.4267
rfingers 7.12502
rthumb 12.5112 -18.1787
lclavicle -2.8625e-014 -1.82882e-014
lhumerus -14.6142 -22.7296 89.512
lradius 45.8254
lwrist -11.6361
lhand -19.4016 -5.32834
lfingers 7.12502
lthumb 6.91753 24.5386
rfemur -36.1442 -12.0516 12.5823
rtibia 35.5817
rfoot -5.07303 8.90537
rtoes -3.08481
lfemur -25.3929 2.90277 -24.6463
ltibia 46.567
lfoot -9.26167 -12.3509
ltoes -12.7516
81
root 16.7094 19.1958 0.264912 161.505 -101.334 -149.384
lowerback 29.9591 0.743276 8.60352
upperback 23.7435 -0.597296 4.6643
thorax 10.8533 -0.656272 0.384687
lowerneck 12.1279 -7.16987 4.87265
upperneck -6.28718 -8.89526 -1.50936
head -4.11696 -4.41159 -0.59637
rclavicle -2.54444e-014 -3.49861e-014
rhumerus 26.557 5.76212 -64.429
rradius 26.5199
rwrist -11.0876
rhand -13.84 11.382
rfingers 7.12502
rthumb 12.2834 -18.2372
lclavicle -2.54444e-014 -3.49861e-014
lhumerus -14.8425 -23.7077 89.66
lradius 45.4499
lwrist -12.1333
lhand -18.6452 -5.2535
lfingers 7.12502
lthumb 7.64765 24.5882
rfemur -36.8693 -12.0682 12.5307
rtibia 35.7846
rfoot -5.27682 8.57039
rtoes -3.15391
lfemur -26.728 2.84186 -24.6772
ltibia 47.3549
lfoot -9.13895 -12.5294
ltoes -13.3368
82
root 16.6866 19.1942 0.257722 162.375 -101.666 -149.539
lowerback 30.3541 0.6734 9.10193
upperback 23.7327 -0.538943 4.67479
thorax 10.7141 -0.560318 0.13645
lowerneck 12.144 -7.37849 5.18856
upperneck -6.73857 -9.10348 -1.29721
head -4.26934 -4.53536 -0.552947
rclavicle 4.77083e-014 3.77691e-014
rhumerus 27.4796 5.10533 -64.0864
rradius 26.5164
rwrist -10.8412
rhand -14.0832 11.3534
rfingers 7.12502
rthumb 12.0489 -18.2797
lclavicle 4.77083e-014 3.77691e-014
lhumerus -15.0586 -24.7534 89.7768
lradius 45.1311
lwrist -12.5022
lhand -18.0446 -5.1866
lfingers 7.12502
lthumb 8.22725 24.6332
rfemur -37.629 -12.0743 12.4712
rtibia 35.983
rfoot -5.47788 8.21286
rtoes -3.36321
lfemur -28.0896 2.80096 -24.7231
ltibia 48.0408
lfoot -8.99474 -12.6968
ltoes -13.7038
83
root 16.6658 19.1948 0.251347 163.229 -102.008 -149.689
lowerback 30.7885 0.579019 9.61322
upperback 23.7009 -0.493005 4.66337
thorax 10.5376 -0.46827 -0.137718
lowerneck 12.2005 -7.5766 5.4548
upperneck -7.19907 -9.29519 -1.02972
head -4.42621 -4.65411 -0.483935
rclavicle 6.36111e-014 3.69739e-014
rhumerus 28.3671 4.45632 -63.7886
rradius 26.501
rwrist -10.5483
rhand -14.2853 11.3413
rfingers 7.12502
rthumb 11.854 -18.3031
lclavicle 6.36111e-014 3.69739e-014
lhumerus -15.3096 -25.7983 89.8767
lradius 44.8883
lwrist -12.7067
lhand -17.5397 -5.12369
lfingers 7.12502
lthumb 8.71456 24.6764
rfemur -38.3725 -12.1003 12.4075
rtibia 36.1716
rfoot -5.66513 7.8517
rtoes -3.4737
lfemur -29.4217 2.70673 -24.765
ltibia 48.6223
lfoot -8.89083 -12.7975
ltoes -13.9152
84
root 16.6476 19.1945 0.246668 163.96 -102.339 -149.694
lowerback 31.214 0.480818 10.0843
upperback 23.6607 -0.454046 4.64786
thorax 10.3555 -0.385621 -0.393124
lowerneck 12.1871 -7.74236 5.65579
upperneck -7.59456 -9.45954 -0.781828
head -4.54919 -4.7583 -0.416573
rclavicle -1.59028e-014 -3.1408e-014
rhumerus 29.2477 3.93072 -63.3901
rradius 26.5017
rwrist -10.3678
rhand -14.4385 11.4241
rfingers 7.12502
rthumb 11.7063 -18.2288
lclavicle -1.59028e-014 -3.1408e-014
lhumerus -15.5678 -26.7804 90.0068
lradius 44.6838
lwrist -12.81
lhand -17.129 -5.08165
lfingers 7.12502
lthumb 9.11083 24.7016
rfemur -39.1479 -12.1559 12.3326
rtibia 36.3547
rfoot -5.8272 7.49897
rtoes -3.71573
lfemur -30.7702 2.5942 -24.8525
ltibia 49.11
lfoot -8.90715 -12.755
ltoes -14.3648
85
root 16.6306 19.1946 0.240305 164.428 -102.669 -149.452
lowerback 31.6686 0.398782 10.4725
upperback 23.6172 -0.402807 4.61643
thorax 10.1564 -0.307373 -0.623849
lowerneck 12.2004 -7.89519 5.84652
upperneck -8.00107 -9.60274 -0.514965
head -4.67812 -4.85404 -0.341729
rclavicle 4.45278e-014 5.04913e-014
rhumerus 30.0745 3.44667 -63.0024
rradius 26.5244
rwrist -10.2103
rhand -14.5727 11.4935
rfingers 7.12502
rthumb 11.5769 -18.1667
lclavicle 4.45278e-014 5.04913e-014
lhumerus -15.8438 -27.7615 90.1194
lradius 44.5177
lwrist -12.7473
lhand -16.7807 -5.12332
lfingers 7.12502
lthumb 9.44693 24.6449
rfemur -39.8975 -12.1154 12.1714
rtibia 36.5352
rfoot -6.0227 7.10476
rtoes -4.00695
lfemur -32.096 2.50276 -24.982
ltibia 49.507
lfoot -8.96572 -12.6413
ltoes -14.6794
86
root 16.6132 19.1931 0.234378 164.803 -103.008 -149.096
lowerback 32.0785 0.317698 10.8441
upperback 23.579 -0.353802 4.56332
thorax 9.98283 -0.22878 -0.869024
lowerneck 12.1512 -8.04757 6.09191
upperneck -8.38016 -9.74668 -0.309017
head -4.79452 -4.94958 -0.295929
rclavicle 6.99722e-014 2.0276e-014
rhumerus 30.9638 2.97433 -62.5659
rradius 26.4767
rwrist -10.1021
rhand -14.6549 11.5691
rfingers 7.12502
rthumb 11.4975 -18.0956
lclavicle 6.99722e-014 2.0276e-014
lhumerus -16.0745 -28.7548 90.2028
lradius 44.3471
lwrist -12.5458
lhand -16.4921 -5.29158
lfingers 7.12502
lthumb 9.72542 24.4639
rfemur -40.6774 -12.1196 11.9901
rtibia 36.7264
rfoot -6.18617 6.73312
rtoes -4.11157
lfemur -33.4273 2.37899 -25.1444
ltibia 49.81
lfoot -9.16869 -12.403
ltoes -15.2066
87
root 16.5945 19.1916 0.229675 165.183 -103.334 -148.727
lowerback 32.4616 0.223789 11.1985
upperback 23.5333 -0.320722 4.48714
thorax 9.81063 -0.158078 -1.12693
lowerneck 12.0671 -8.18091 6.32617
upperneck -8.69244 -9.86867 -0.106383
head -4.88371 -5.03408 -0.254004
rclavicle 3.49861e-014 1.70955e-014
rhumerus 31.8919 2.66856 -61.9876
rradius 26.4319
rwrist -10.1999
rhand -14.7465 11.615
rfingers 7.12502
rthumb 11.4093 -18.0546
lclavicle 3.49861e-014 1.70955e-014
lhumerus -16.3259 -29.6867 90.2785
lradius 44.1807
lwrist -12.2935
lhand -16.2334 -5.47979
lfingers 7.12502
lthumb 9.97498 24.2639
rfemur -41.4735 -12.1135 11.8043
rtibia 36.9238
rfoot -6.36023 6.36461
rtoes -4.25681
lfemur -34.7587 2.29267 -25.3151
ltibia 50.0221
lfoot -9.68937 -11.9361
ltoes -16.2928
